<?xml version="1.0" encoding="UTF-8"?>
<svg version="1.1" xmlns="http://www.w3.org/2000/svg" width="385" height="391">
<path d="M0 0 C127.05 0 254.1 0 385 0 C385 129.03 385 258.06 385 391 C257.95 391 130.9 391 0 391 C0 261.97 0 132.94 0 0 Z " fill="#FDFEFE" transform="translate(0,0)"/>
<path d="M0 0 C1.31363525 0.27336182 1.31363525 0.27336182 2.65380859 0.55224609 C13.47400447 2.84014125 23.84106301 5.55982388 34 10 C34.72477539 10.30389648 35.44955078 10.60779297 36.19628906 10.92089844 C57.33591373 19.7870098 75.85307173 31.35113412 92.7265625 46.9140625 C94.8389424 48.8522255 96.99998072 50.71023271 99.1875 52.5625 C116.25636979 67.47806621 128.31821374 88.09016137 138.0625 108.25 C138.55250488 109.26336426 139.04250977 110.27672852 139.54736328 111.32080078 C139.99708496 112.27196777 140.44680664 113.22313477 140.91015625 114.203125 C141.31371338 115.05551758 141.71727051 115.90791016 142.13305664 116.78613281 C143 119 143 119 143 122 C136.4 122 129.8 122 123 122 C123.928125 124.536875 124.85625 127.07375 125.8125 129.6875 C128.43535621 137.04314518 130.48256616 144.33153973 132 152 C132.41765625 153.78083984 132.41765625 153.78083984 132.84375 155.59765625 C136.9245644 174.06369038 136.37006393 194.45501961 133 213 C132.8146167 214.07773682 132.8146167 214.07773682 132.62548828 215.17724609 C130.38346495 227.99618433 126.50210726 239.79236301 122 252 C128.93 252 135.86 252 143 252 C141.0606042 258.46465267 139.35600723 263.91052915 136.3125 269.75 C135.78595825 270.77395874 135.78595825 270.77395874 135.2487793 271.81860352 C134.17725159 273.88527516 133.09006356 275.94305811 132 278 C131.3915625 279.16917969 130.783125 280.33835937 130.15625 281.54296875 C121.94771172 296.65572248 110.89874402 309.67630084 99 322 C98.401875 322.6496875 97.80375 323.299375 97.1875 323.96875 C80.33032141 341.8373593 57.47260581 354.72383839 35 364 C34.33919434 364.27972656 33.67838867 364.55945313 32.99755859 364.84765625 C24.81983282 368.28566434 16.5822348 370.75671851 7.9375 372.75 C7.07608398 372.94875732 6.21466797 373.14751465 5.32714844 373.35229492 C-9.13299559 376.50514689 -23.25686635 377.41000847 -38 377.375 C-38.90385437 377.37412384 -39.80770874 377.37324768 -40.73895264 377.37234497 C-54.83545441 377.32734056 -68.30600884 376.60815178 -82 373 C-82.93859863 372.75862305 -83.87719727 372.51724609 -84.84423828 372.26855469 C-127.66954344 360.96318607 -165.61647158 335.56801407 -192 300 C-192.63550781 299.14792969 -193.27101563 298.29585938 -193.92578125 297.41796875 C-195.6824957 294.98279907 -197.35497361 292.51199976 -199 290 C-199.69609375 288.94039063 -200.3921875 287.88078125 -201.109375 286.7890625 C-217 261.83535653 -217 261.83535653 -217 252 C-208.75 252 -200.5 252 -192 252 C-190.824375 254.3925 -189.64875 256.785 -188.4375 259.25 C-182.44064954 271.25587974 -175.85310089 282.04556175 -167.30175781 292.38867188 C-166.1103957 293.86335115 -164.98491413 295.39063046 -163.8671875 296.921875 C-163.23039062 297.75203125 -162.59359375 298.5821875 -161.9375 299.4375 C-161.41027344 300.15808594 -160.88304687 300.87867188 -160.33984375 301.62109375 C-154.61890769 304.99253019 -144.89154845 301.52384363 -138.6171875 300.2578125 C-137.75924591 300.08877411 -136.90130432 299.91973572 -136.0173645 299.74557495 C-133.30235488 299.20975792 -130.5886545 298.66763392 -127.875 298.125 C-124.31017927 297.41783755 -120.74491377 296.71292717 -117.1796875 296.0078125 C-116.31406189 295.83630676 -115.44843628 295.66480103 -114.55657959 295.48809814 C-109.08591829 294.40591966 -103.61260036 293.3397126 -98.1328125 292.3046875 C-96.30967529 291.96026611 -96.30967529 291.96026611 -94.44970703 291.60888672 C-78.92311675 288.8683831 -68.8720575 289.578512 -54.44189453 295.71044922 C-47.64845223 298.53869801 -42.14673813 300 -34.7421875 300 C-32 300 -32 300 -29.64453125 300.4921875 C-26.03587806 301.1851342 -22.47142755 301.14486748 -18.8125 301.125 C-18.08869141 301.12886719 -17.36488281 301.13273437 -16.61914062 301.13671875 C-12.68083498 301.20454326 -12.68083498 301.20454326 -9 300 C-7.125 299.8671875 -7.125 299.8671875 -5 299.875 C-3.948125 299.87113281 -3.948125 299.87113281 -2.875 299.8671875 C-1 300 -1 300 1 301 C7.86597943 301.71027373 11.54925965 300.14582495 17 296 C18.57265794 294.42734206 18.30757977 292.67159971 18.5 290.5 C18.88888889 286.11111111 18.88888889 286.11111111 20 285 C21.41630584 284.80979364 22.8330478 284.62282984 24.25 284.4375 C28.12182678 283.61002825 29.8495434 282.61599141 32.0625 279.3125 C34.1012213 275.43189945 34.58122673 272.40071664 34 268 C33.36308416 266.32173887 32.70098613 264.65252554 32 263 C34.20826378 262.97277483 36.41662638 262.95350271 38.625 262.9375 C39.85476563 262.92589844 41.08453125 262.91429687 42.3515625 262.90234375 C46 263 46 263 48.8059082 263.48852539 C52.15382992 264.02463301 55.36541849 264.19212293 58.75390625 264.28125 C60.02041016 264.31863281 61.28691406 264.35601562 62.59179688 264.39453125 C65.24283579 264.46494743 67.89387747 264.53525963 70.54492188 264.60546875 C71.81013672 264.64285156 73.07535156 264.68023437 74.37890625 264.71875 C75.5294751 264.74904297 76.68004395 264.77933594 77.86547852 264.81054688 C80.68811015 264.98114911 83.23737343 265.43901004 86 266 C90.03943695 266.23901994 94.07916028 266.2308481 98.125 266.25 C99.22199219 266.270625 100.31898438 266.29125 101.44921875 266.3125 C102.49980469 266.31765625 103.55039062 266.3228125 104.6328125 266.328125 C106.06971436 266.34214355 106.06971436 266.34214355 107.53564453 266.35644531 C110.04666735 266.19852296 110.04666735 266.19852296 111.80615234 264.61206055 C113.35853237 262.51587132 113.46501436 261.15581071 113.5 258.5625 C113.5309375 257.80066406 113.561875 257.03882813 113.59375 256.25390625 C112.67063379 252.74970853 111.08107062 251.85493027 108 250 C104.8777298 249.02260991 101.72435827 248.4711013 98.5 247.9375 C97.56857178 247.7739502 96.63714355 247.61040039 95.67749023 247.44189453 C92.78770809 246.94319486 89.89461131 246.46975918 87 246 C85.73760498 245.78512939 85.73760498 245.78512939 84.44970703 245.56591797 C71.75678949 243.41960111 59.05834258 242.40271434 46.21508789 241.73388672 C40.19227324 241.3983384 34.69637259 241.04899372 29 239 C30.37730945 234.49244179 32.16889141 232.68511076 36 230 C38.60130594 228.68871032 41.27641607 227.60949544 43.984375 226.5390625 C44.75823547 226.22601166 45.53209595 225.91296082 46.32940674 225.59042358 C47.96848114 224.92931941 49.6092108 224.27230619 51.25146484 223.61914062 C53.70400177 222.64330221 56.15116073 221.65493526 58.59765625 220.6640625 C67.06908552 217.25214349 75.56634172 213.98712972 84.23162842 211.09683228 C93.29098225 208.20603208 93.29098225 208.20603208 100 202 C100.46190437 198.45873316 100.17690093 196.40687215 98.75 193.125 C94.30470033 189.68999571 89.43616942 190.54773153 84 191 C80.20632628 191.78295665 76.60100994 192.93858343 72.9375 194.1875 C70.9333247 194.83653197 68.92809561 195.48231811 66.921875 196.125 C65.93123047 196.4446875 64.94058594 196.764375 63.91992188 197.09375 C59.54820531 198.45059046 55.12651877 199.57507335 50.6875 200.6875 C45.95626093 201.88478134 41.41925612 203.09601517 36.9375 205.0625 C30.83641094 207.73784387 24.27346078 208.82013612 17.78125 210.16796875 C14.2131895 210.79150848 14.2131895 210.79150848 12 212 C0.65634341 212.94756081 -8.98268046 212.14971796 -18.48046875 205.1796875 C-22.52832446 201.75512993 -24.74841518 199.85518237 -25.48046875 194.45703125 C-25.40034615 188.63172387 -21.84413811 185.02655805 -18.3125 180.6875 C-9.31383284 169.11313145 -3.62368842 159.13942737 -5 144 C-6.42398691 140.17920344 -8.60181832 138.26545445 -12 136 C-15.07665027 136.08221709 -15.07665027 136.08221709 -18 137 C-19.7693437 139.65401555 -20.38703644 141.10239651 -21.1875 144.0625 C-22.70274008 148.8005096 -25.12026144 152.38665055 -28.0859375 156.34765625 C-29.61004354 158.45963176 -30.89034202 160.52336307 -32.1953125 162.765625 C-35.28043063 167.75481206 -39.3017706 171.63066175 -43.5 175.6875 C-44.24636719 176.42033203 -44.99273437 177.15316406 -45.76171875 177.90820312 C-48.70352098 180.79533469 -51.64136553 183.67116461 -54.6796875 186.45703125 C-57.89579064 189.98175035 -60.17741092 193.91947138 -62.625 198 C-76.39137386 220.29351472 -76.39137386 220.29351472 -87 224 C-90.27707176 224.76797215 -93.30126381 225.12420533 -96.66340637 225.12025452 C-97.57059418 225.12162918 -98.47778198 225.12300385 -99.41246033 225.12442017 C-100.39501297 225.12082489 -101.37756561 225.11722961 -102.38989258 225.11352539 C-103.43425476 225.11367142 -104.47861694 225.11381744 -105.55462646 225.1139679 C-109.00128263 225.11327209 -112.44788454 225.10549518 -115.89453125 225.09765625 C-118.28635122 225.09579089 -120.67817158 225.09436754 -123.06999207 225.09336853 C-129.36149147 225.08955264 -135.65296774 225.07973024 -141.94445801 225.06866455 C-148.36596361 225.05843051 -154.78747296 225.05386664 -161.20898438 225.04882812 C-173.80599944 225.03810716 -186.40299849 225.0212344 -199 225 C-196.02622621 221.72442012 -193.14617133 219.82468494 -189.19677734 217.85546875 C-188.02811127 217.26805908 -186.85944519 216.68064941 -185.65536499 216.07543945 C-184.38236344 215.44584124 -183.10921722 214.81653546 -181.8359375 214.1875 C-180.52010376 213.5307771 -179.20456684 212.87345918 -177.88931274 212.21557617 C-175.13291588 210.83893955 -172.37392268 209.46770434 -169.61279297 208.10058594 C-166.09879964 206.36049807 -162.59009911 204.61005529 -159.08315086 202.8558197 C-156.36502867 201.49703266 -153.6448277 200.14245217 -150.92393875 198.78921509 C-149.63108407 198.14593956 -148.33869034 197.50173666 -147.04679489 196.85653687 C-129.28007367 187.99470404 -112.64995185 183.18332798 -93 181 C-79.23734166 179.4079187 -55.18219412 174.48531871 -46 163 C-44.8961899 159.6885697 -44.9307665 157.10642321 -44.875 153.625 C-44.48467548 147.56824022 -44.48467548 147.56824022 -42.4140625 145.140625 C-40.5 143.875 -40.5 143.875 -37 142 C-35.76611783 138.29835348 -35.54679492 134.85224321 -36 131 C-37.42621684 128.28873616 -37.42621684 128.28873616 -39 126 C-39 124.68 -39 123.36 -39 122 C-32.93641289 119.11257757 -26.65121059 117.3926398 -20.18994141 115.60644531 C-8.45439249 112.356601 3.22650494 109.03599831 14.75 105.09375 C18.45504396 103.84686021 22.18676311 102.73498724 25.94921875 101.67578125 C28.11453369 100.96225842 30.02864893 100.14673363 32 99 C33.4783226 96.04335481 33.06032783 93.25770263 33 90 C25.39631907 85.60247946 16.25556194 88.1854991 8.1953125 90.08984375 C4.9974581 90.82107489 1.79589287 91.37411004 -1.4453125 91.87890625 C-12.04851289 93.53753208 -21.72761804 95.51768225 -31.625 99.73046875 C-35.11376455 101.04279338 -38.30330839 101.60864107 -42 102 C-42.55491616 99.16376183 -42.7114816 97.75760456 -42 95 C-37.85875057 89.12149174 -32.42426624 84.24083883 -26.9375 79.6328125 C-25.68200066 78.57475056 -24.45048406 77.487282 -23.25 76.3671875 C-18.94507171 72.37770654 -14.3328382 69.14540737 -9.4375 65.9375 C-7.51493251 64.66524747 -5.59395278 63.39068569 -3.67480469 62.11328125 C-2.27863026 61.18521195 -0.87812549 60.26366131 0.5234375 59.34375 C3.14344704 57.41884503 4.84311951 55.91262206 5.40625 52.63671875 C5.43443506 50.37134483 5.26014228 48.24602933 5 46 C-2.49745894 45.43318856 -7.66630773 46.56899086 -14.3125 50 C-15.13500244 50.40863281 -15.95750488 50.81726562 -16.80493164 51.23828125 C-29.63770162 57.71545238 -41.28111201 65.62227384 -52.37109375 74.76953125 C-62.06943083 82.71194744 -71.74322768 88.76148494 -84 92 C-83.32742024 87.28272823 -81.51001613 83.29960792 -79.5625 79 C-78.63853007 76.93487957 -77.71638114 74.86918488 -76.80419922 72.79882812 C-76.16236694 71.36318143 -75.48370502 69.94401804 -74.79296875 68.53125 C-73.63884449 64.8471489 -73.71024034 61.33680695 -73.75 57.5 C-73.74226562 56.75363281 -73.73453125 56.00726563 -73.7265625 55.23828125 C-73.74444195 50.18733697 -74.34682021 46.36168541 -77.3125 42.125 C-79.01815837 40.74634588 -79.01815837 40.74634588 -81.5625 41.125 C-84.3261611 41.84389168 -84.3261611 41.84389168 -86 45 C-86.14564045 46.68326752 -86.22083215 48.37319543 -86.25 50.0625 C-86.65743361 55.59195615 -88.35474218 58.96795619 -91.39453125 63.53125 C-92.98453542 65.97621991 -94.2101154 68.42015707 -95.4375 71.0625 C-98.3811662 77.07170392 -102.39388754 82.0441495 -106.8046875 87.046875 C-115.26267522 96.94377349 -121.51442589 108.88405174 -127.265625 120.51953125 C-133.44485374 132.98342617 -133.44485374 132.98342617 -141 136 C-142.48995483 136.70129028 -142.48995483 136.70129028 -144.01000977 137.41674805 C-148.53343311 139.3535894 -153.17918461 140.25297944 -157.9921875 141.19140625 C-158.93756378 141.38218246 -159.88294006 141.57295868 -160.85696411 141.76951599 C-163.86159467 142.37433054 -166.86817317 142.96871081 -169.875 143.5625 C-172.87418185 144.16219146 -175.87293084 144.76400887 -178.87161255 145.36619568 C-180.73114521 145.73881192 -182.59104827 146.10958634 -184.4513855 146.47816467 C-189.98593938 147.5774912 -195.49582711 148.75715595 -201 150 C-202.28887456 145.57624988 -201.61929776 142.62218581 -200.3125 138.25 C-199.81169922 136.52523437 -199.81169922 136.52523437 -199.30078125 134.765625 C-197.79642061 130.41065906 -195.87127298 126.2103642 -194 122 C-201.59 122 -209.18 122 -217 122 C-213.80916874 106.04584371 -203.7224568 89.95323446 -194 77 C-193.56333008 76.4121875 -193.12666016 75.824375 -192.67675781 75.21875 C-184.19139321 63.88049463 -175.01502241 52.96356689 -164 44 C-162.91144699 43.08725312 -161.82290648 42.17449132 -160.734375 41.26171875 C-151.96283452 33.99122192 -142.86259273 27.69676189 -133 22 C-132.33274902 21.61215332 -131.66549805 21.22430664 -130.97802734 20.82470703 C-113.11379277 10.5705074 -94.18072654 3.95339973 -74 0 C-73.19755859 -0.16371094 -72.39511719 -0.32742188 -71.56835938 -0.49609375 C-48.5503923 -5.0359047 -22.93274231 -4.93070506 0 0 Z " fill="#01AEF1" transform="translate(229,3)"/>
<path d="M0 0 C2.20826378 -0.02722517 4.41662638 -0.04649729 6.625 -0.0625 C8.46964844 -0.07990234 8.46964844 -0.07990234 10.3515625 -0.09765625 C14 0 14 0 16.8059082 0.48852539 C20.15382992 1.02463301 23.36541849 1.19212293 26.75390625 1.28125 C28.65366211 1.33732422 28.65366211 1.33732422 30.59179688 1.39453125 C33.24283579 1.46494743 35.89387747 1.53525963 38.54492188 1.60546875 C39.81013672 1.64285156 41.07535156 1.68023437 42.37890625 1.71875 C44.10475952 1.76418945 44.10475952 1.76418945 45.86547852 1.81054688 C48.68804965 1.98114546 51.23751909 2.43853364 54 3 C58.01858687 3.23918003 62.03746805 3.23086735 66.0625 3.25 C67.15111328 3.270625 68.23972656 3.29125 69.36132812 3.3125 C70.40869141 3.31765625 71.45605469 3.3228125 72.53515625 3.328125 C73.487854 3.3374707 74.44055176 3.34681641 75.42211914 3.35644531 C78.41016537 2.94328616 79.77517829 1.98475189 82 0 C81.57335887 5.73299025 79.25286796 9.16091869 76 13.6875 C75.25459961 14.74469238 75.25459961 14.74469238 74.49414062 15.82324219 C65.12029345 28.98383557 54.51110012 41.7064034 42 52 C41.42121094 52.5053125 40.84242188 53.010625 40.24609375 53.53125 C36.24739583 57 36.24739583 57 34 57 C34.6210859 59.39690917 35.24672366 61.79247494 35.875 64.1875 C36.04902344 64.86103516 36.22304688 65.53457031 36.40234375 66.22851562 C37.37869801 69.9350457 38.4822544 73.47910367 40 77 C37.69 77 35.38 77 33 77 C33 75.35 33 73.7 33 72 C30.36 72 27.72 72 25 72 C25 73.65 25 75.3 25 77 C22.69 77 20.38 77 18 77 C18.99 73.7 19.98 70.4 21 67 C20.05125 67.495 19.1025 67.99 18.125 68.5 C15 70 15 70 13 70 C13.33 72.31 13.66 74.62 14 77 C11.36 77 8.72 77 6 77 C6.33 76.01 6.66 75.02 7 74 C6.4225 74.33 5.845 74.66 5.25 75 C3 76 3 76 -1 76 C-1 76.66 -1 77.32 -1 78 C-43.90496139 95.55662925 -90.47944283 95.69798037 -133.44042969 78.59130859 C-138.91509311 76.47715881 -143.12786177 75.59667502 -149 76 C-148.34 74.35 -147.68 72.7 -147 71 C-149.97 70.01 -149.97 70.01 -153 69 C-153.15149298 72.62885324 -153.15149298 72.62885324 -152 76 C-154.97 76 -157.94 76 -161 76 C-160.67 75.34 -160.34 74.68 -160 74 C-159.960008 72.00039988 -159.95653201 69.99952758 -160 68 C-160.99 70.31 -161.98 72.62 -163 75 C-164.98 75 -166.96 75 -169 75 C-169.99 72.69 -170.98 70.38 -172 68 C-172.33 70.31 -172.66 72.62 -173 75 C-174.98 75 -176.96 75 -179 75 C-178.98428955 74.03175293 -178.98428955 74.03175293 -178.96826172 73.04394531 C-178.92662728 70.11266998 -178.90065025 67.18145696 -178.875 64.25 C-178.85824219 63.23421875 -178.84148437 62.2184375 -178.82421875 61.171875 C-178.81777344 60.1921875 -178.81132812 59.2125 -178.8046875 58.203125 C-178.79421387 57.30239258 -178.78374023 56.40166016 -178.77294922 55.47363281 C-179.09825479 51.92955104 -180.15319497 49.80082467 -182.7265625 47.3671875 C-183.35304688 46.87476563 -183.97953125 46.38234375 -184.625 45.875 C-186.5390625 44.3671875 -186.5390625 44.3671875 -188 43 C-188 42.34 -188 41.68 -188 41 C-178.00710886 38.31358023 -167.91584799 36.38439107 -157.75 34.5 C-156.15748985 34.20215545 -154.56504159 33.90397983 -152.97265625 33.60546875 C-149.83834239 33.01837867 -146.70355175 32.43394199 -143.56835938 31.8515625 C-140.54765525 31.28989983 -137.52821019 30.72211752 -134.50976562 30.1484375 C-133.79403381 30.01280396 -133.078302 29.87717041 -132.34088135 29.73742676 C-130.40186444 29.36959466 -128.4631284 29.00028288 -126.52441406 28.63085938 C-110.97985144 25.84843004 -100.88966449 26.5710301 -86.44189453 32.71044922 C-79.64845223 35.53869801 -74.14673813 37 -66.7421875 37 C-64 37 -64 37 -61.64453125 37.4921875 C-58.03587806 38.1851342 -54.47142755 38.14486748 -50.8125 38.125 C-50.08869141 38.12886719 -49.36488281 38.13273437 -48.61914062 38.13671875 C-44.68083498 38.20454326 -44.68083498 38.20454326 -41 37 C-39.125 36.8671875 -39.125 36.8671875 -37 36.875 C-35.948125 36.87113281 -35.948125 36.87113281 -34.875 36.8671875 C-33 37 -33 37 -31 38 C-24.13402057 38.71027373 -20.45074035 37.14582495 -15 33 C-13.42734206 31.42734206 -13.69242023 29.67159971 -13.5 27.5 C-13.11111111 23.11111111 -13.11111111 23.11111111 -12 22 C-10.58369416 21.80979364 -9.1669522 21.62282984 -7.75 21.4375 C-3.87817322 20.61002825 -2.1504566 19.61599141 0.0625 16.3125 C2.1012213 12.43189945 2.58122673 9.40071664 2 5 C1.36308416 3.32173887 0.70098613 1.65252554 0 0 Z " fill="#02ADEF" transform="translate(261,266)"/>
<path d="M0 0 C0.33 0.66 0.66 1.32 1 2 C7.93 2 14.86 2 22 2 C20.0606042 8.46465267 18.35600723 13.91052915 15.3125 19.75 C14.78595825 20.77395874 14.78595825 20.77395874 14.2487793 21.81860352 C13.17725159 23.88527516 12.09006356 25.94305811 11 28 C10.3915625 29.16917969 9.783125 30.33835937 9.15625 31.54296875 C0.94771172 46.65572248 -10.10125598 59.67630084 -22 72 C-22.598125 72.6496875 -23.19625 73.299375 -23.8125 73.96875 C-40.66967859 91.8373593 -63.52739419 104.72383839 -86 114 C-86.66080566 114.27972656 -87.32161133 114.55945313 -88.00244141 114.84765625 C-96.18016718 118.28566434 -104.4177652 120.75671851 -113.0625 122.75 C-114.35462402 123.04813599 -114.35462402 123.04813599 -115.67285156 123.35229492 C-130.13299559 126.50514689 -144.25686635 127.41000847 -159 127.375 C-159.90385437 127.37412384 -160.80770874 127.37324768 -161.73895264 127.37234497 C-175.83545441 127.32734056 -189.30600884 126.60815178 -203 123 C-203.93859863 122.75862305 -204.87719727 122.51724609 -205.84423828 122.26855469 C-248.66954344 110.96318607 -286.61647158 85.56801407 -313 50 C-313.63550781 49.14792969 -314.27101563 48.29585938 -314.92578125 47.41796875 C-316.6824957 44.98279907 -318.35497361 42.51199976 -320 40 C-321.04414063 38.41058594 -321.04414063 38.41058594 -322.109375 36.7890625 C-338 11.83535653 -338 11.83535653 -338 2 C-329.75 2 -321.5 2 -313 2 C-311.824375 4.3925 -310.64875 6.785 -309.4375 9.25 C-299.9145904 28.31515899 -287.59291599 47.13470236 -270.75 60.625 C-268 63 -268 63 -267 66 C-266.91856145 67.62719482 -266.8924698 69.25751719 -266.90234375 70.88671875 C-266.90717773 72.2934082 -266.90717773 72.2934082 -266.91210938 73.72851562 C-266.92467773 75.19321289 -266.92467773 75.19321289 -266.9375 76.6875 C-266.94201172 77.67556641 -266.94652344 78.66363281 -266.95117188 79.68164062 C-266.96295697 82.12115474 -266.97940989 84.56054689 -267 87 C-265.35 87.33 -263.7 87.66 -262 88 C-262 85.03 -262 82.06 -262 79 C-259.49701566 81.93828597 -258.53069061 84.17902761 -258 88 C-256.02 88 -254.04 88 -252 88 C-251.71125 86.865625 -251.4225 85.73125 -251.125 84.5625 C-250.568125 82.7990625 -250.568125 82.7990625 -250 81 C-249.34 80.67 -248.68 80.34 -248 80 C-247.95758277 82.33294775 -247.95907063 84.66702567 -248 87 C-248.33 87.33 -248.66 87.66 -249 88 C-246.69 88 -244.38 88 -242 88 C-242.33 87.67 -242.66 87.34 -243 87 C-243.04080783 85.00041636 -243.04254356 82.99954746 -243 81 C-240.69 81.99 -238.38 82.98 -236 84 C-236.495 85.98 -236.495 85.98 -237 88 C-235.88238281 87.92394531 -234.76476562 87.84789062 -233.61328125 87.76953125 C-228.28985618 87.77537475 -224.03408084 89.65089279 -219.1875 91.6875 C-198.28909027 100.01445469 -178.67852474 103.11729528 -156.25 103.25 C-155.05455566 103.25942627 -153.85911133 103.26885254 -152.62744141 103.27856445 C-144.26575083 103.24808092 -136.239242 102.40001763 -128 101 C-127.13439453 100.85401367 -126.26878906 100.70802734 -125.37695312 100.55761719 C-123.11807936 100.15471865 -120.87167712 99.71589619 -118.625 99.25 C-117.43970703 99.00491699 -117.43970703 99.00491699 -116.23046875 98.75488281 C-109.24913871 97.22178274 -102.73220388 94.86466147 -96.125 92.171875 C-93 91 -93 91 -90 91 C-90 90.34 -90 89.68 -90 89 C-87.36 88.34 -84.72 87.68 -82 87 C-82 87.66 -82 88.32 -82 89 C-80.02 89 -78.04 89 -76 89 C-76 87.02 -76 85.04 -76 83 C-73.03 81.68 -70.06 80.36 -67 79 C-68.875 86.75 -68.875 86.75 -70 89 C-68.35 89 -66.7 89 -65 89 C-64.67 87.35 -64.34 85.7 -64 84 C-61.36 84 -58.72 84 -56 84 C-55.67 85.65 -55.34 87.3 -55 89 C-53.35 89 -51.7 89 -50 89 C-50.45375 88.01 -50.9075 87.02 -51.375 86 C-53.61315915 80.77055705 -55 75.73372011 -55 70 C-53.19921875 68.2109375 -53.19921875 68.2109375 -50.6875 66.375 C-41.97597782 59.7364746 -33.88163924 52.54220871 -27 44 C-26.24203125 43.06800781 -25.4840625 42.13601563 -24.703125 41.17578125 C-14.54499667 28.46113066 -6.47348201 14.91901813 0 0 Z " fill="#6CAEE4" transform="translate(350,253)"/>
<path d="M0 0 C1.31363525 0.27336182 1.31363525 0.27336182 2.65380859 0.55224609 C13.47400447 2.84014125 23.84106301 5.55982388 34 10 C34.72477539 10.30389648 35.44955078 10.60779297 36.19628906 10.92089844 C57.33591373 19.7870098 75.85307173 31.35113412 92.7265625 46.9140625 C94.8389424 48.8522255 96.99998072 50.71023271 99.1875 52.5625 C116.25636979 67.47806621 128.31821374 88.09016137 138.0625 108.25 C138.55250488 109.26336426 139.04250977 110.27672852 139.54736328 111.32080078 C139.99708496 112.27196777 140.44680664 113.22313477 140.91015625 114.203125 C141.31371338 115.05551758 141.71727051 115.90791016 142.13305664 116.78613281 C143 119 143 119 143 122 C132.605 122.495 132.605 122.495 122 123 C121.05125 120.69 120.1025 118.38 119.125 116 C107.03152246 87.79741633 84.78527782 62.44658942 59 46 C58.40815918 45.62101562 57.81631836 45.24203125 57.20654297 44.8515625 C48.14128558 39.10227449 38.84651116 34.26432148 29 30 C27.48599609 29.32324219 27.48599609 29.32324219 25.94140625 28.6328125 C15.70987821 24.3486096 4.84506691 22.15282672 -6 20 C-6.92151855 19.80946045 -7.84303711 19.6189209 -8.79248047 19.42260742 C-17.18292445 17.83336862 -25.49027148 17.64523515 -34 17.6875 C-34.72278137 17.68865814 -35.44556274 17.68981628 -36.19024658 17.69100952 C-51.90339897 17.74068389 -66.95952927 19.28099844 -82 24 C-83.14726562 24.31324219 -84.29453125 24.62648438 -85.4765625 24.94921875 C-109.59934946 31.6995267 -130.96266845 44.97770654 -150 61 C-150.5460791 61.4542334 -151.0921582 61.9084668 -151.65478516 62.37646484 C-170.7200966 78.42164093 -182.98251433 99.96502865 -194 122 C-201.59 122 -209.18 122 -217 122 C-213.80916874 106.04584371 -203.7224568 89.95323446 -194 77 C-193.56333008 76.4121875 -193.12666016 75.824375 -192.67675781 75.21875 C-184.19139321 63.88049463 -175.01502241 52.96356689 -164 44 C-162.91144699 43.08725312 -161.82290648 42.17449132 -160.734375 41.26171875 C-151.96283452 33.99122192 -142.86259273 27.69676189 -133 22 C-132.33274902 21.61215332 -131.66549805 21.22430664 -130.97802734 20.82470703 C-113.11379277 10.5705074 -94.18072654 3.95339973 -74 0 C-73.19755859 -0.16371094 -72.39511719 -0.32742188 -71.56835938 -0.49609375 C-48.5503923 -5.0359047 -22.93274231 -4.93070506 0 0 Z " fill="#6CAEE5" transform="translate(229,3)"/>
<path d="M0 0 C5.61 0 11.22 0 17 0 C17.33 1.65 17.66 3.3 18 5 C18 3.35 18 1.7 18 0 C21.27066566 -0.08706892 24.54103365 -0.14041241 27.8125 -0.1875 C29.2056543 -0.22520508 29.2056543 -0.22520508 30.62695312 -0.26367188 C31.51962891 -0.27333984 32.41230469 -0.28300781 33.33203125 -0.29296875 C34.56530151 -0.31653442 34.56530151 -0.31653442 35.82348633 -0.34057617 C38 0 38 0 39.76464844 1.27636719 C41.92486001 4.29041733 41.47046378 7.86842189 41.4375 11.4375 C41.4674707 12.5831543 41.4674707 12.5831543 41.49804688 13.75195312 C41.49499694 17.2563256 41.32087472 19.44450721 39.546875 22.515625 C35.69556609 24.76025289 32.18358664 24.46701602 27.8125 24.3125 C26.98041016 24.30283203 26.14832031 24.29316406 25.29101562 24.28320312 C19.16843594 24.16843594 19.16843594 24.16843594 18 23 C17.95936168 21.33382885 17.957279 19.66611905 18 18 C17.67 18.33 17.34 18.66 17 19 C17 20.65 17 22.3 17 24 C10.73 24 4.46 24 -2 24 C-2 23.34 -2 22.68 -2 22 C-1.34 22 -0.68 22 0 22 C0 14.74 0 7.48 0 0 Z " fill="#009EDB" transform="translate(223,319)"/>
<path d="M0 0 C2.25 2 2.25 2 4 4 C4.66 3.67 5.32 3.34 6 3 C6 4.32 6 5.64 6 7 C6.66 7 7.32 7 8 7 C8.66 7.33 9.32 7.66 10 8 C9.67 8.33 9.34 8.66 9 9 C9.66 9.66 10.32 10.32 11 11 C10.67 11.33 10.34 11.66 10 12 C10.66 12 11.32 12 12 12 C12.20086443 15.71599191 12.1519437 16.77208445 10 20 C10.33 20.66 10.66 21.32 11 22 C10.01 22 9.02 22 8 22 C8.66 22.33 9.32 22.66 10 23 C10 23.66 10 24.32 10 25 C9.34 25 8.68 25 8 25 C7.67 25.66 7.34 26.32 7 27 C6.67 27 6.34 27 6 27 C5.67 27.66 5.34 28.32 5 29 C4.34 28.34 3.68 27.68 3 27 C2.2575 27.66 1.515 28.32 0.75 29 C-2 31 -2 31 -6 31 C-6.33 30.01 -6.66 29.02 -7 28 C-7.66 28.66 -8.32 29.32 -9 30 C-10.20628008 27.66785852 -11.1654738 25.50357861 -12 23 C-12.99 23 -13.98 23 -15 23 C-15 22.67 -15 22.34 -15 22 C-15.66 21.67 -16.32 21.34 -17 21 C-17 20.01 -17 19.02 -17 18 C-17.226875 17.195625 -17.45375 16.39125 -17.6875 15.5625 C-18 13 -18 13 -16.5625 10.6875 C-16.046875 10.130625 -15.53125 9.57375 -15 9 C-15.33 8.34 -15.66 7.68 -16 7 C-15.34 6.67 -14.68 6.34 -14 6 C-13.67 5.34 -13.34 4.68 -13 4 C-12.01 4.66 -11.02 5.32 -10 6 C-10.66 5.01 -11.32 4.02 -12 3 C-11.34 3 -10.68 3 -10 3 C-9.34 2.34 -8.68 1.68 -8 1 C-7.67 1.66 -7.34 2.32 -7 3 C-6.5875 2.505 -6.175 2.01 -5.75 1.5 C-4 0 -4 0 0 0 Z " fill="#71A197" transform="translate(184,314)"/>
<path d="M0 0 C2.77141717 -0.08089542 5.54047819 -0.14044062 8.3125 -0.1875 C9.09818359 -0.21263672 9.88386719 -0.23777344 10.69335938 -0.26367188 C11.45068359 -0.27333984 12.20800781 -0.28300781 12.98828125 -0.29296875 C14.03302612 -0.31653442 14.03302612 -0.31653442 15.09887695 -0.34057617 C17.63103806 0.11304714 18.48128807 0.94909981 20 3 C20.32548821 5.90593527 20.46430195 8.53558016 20.4375 11.4375 C20.4674707 12.5831543 20.4674707 12.5831543 20.49804688 13.75195312 C20.49499806 17.25504343 20.31832294 19.44658141 18.55078125 22.51953125 C14.68090071 24.7656028 11.134864 24.4281351 6.75 24.25 C5.90953125 24.23195313 5.0690625 24.21390625 4.203125 24.1953125 C2.13492605 24.14830798 0.06731559 24.07656724 -2 24 C-1.67 23.34 -1.34 22.68 -1 22 C-0.84777027 20.33434251 -0.75082785 18.66343504 -0.68359375 16.9921875 C-0.64169922 16.00605469 -0.59980469 15.01992188 -0.55664062 14.00390625 C-0.51732422 12.97136719 -0.47800781 11.93882812 -0.4375 10.875 C-0.39431641 9.83472656 -0.35113281 8.79445313 -0.30664062 7.72265625 C-0.2003712 5.14857472 -0.09833417 2.57439492 0 0 Z " fill="#000E13" transform="translate(244,319)"/>
<path d="M0 0 C2.64 0 5.28 0 8 0 C7.9175 0.804375 7.835 1.60875 7.75 2.4375 C8.0392547 6.5593795 9.30519741 9.2906573 11.125 12.94921875 C12 15 12 15 12 18 C12.66 18 13.32 18 14 18 C17.45159346 9.1821683 17.45159346 9.1821683 19 0 C21.64 0 24.28 0 27 0 C27 0.66 27 1.32 27 2 C26.34 2 25.68 2 25 2 C25.13850705 5.45866792 25.28704727 8.91683275 25.4375 12.375 C25.47681641 13.35984375 25.51613281 14.3446875 25.55664062 15.359375 C25.59853516 16.30039062 25.64042969 17.24140625 25.68359375 18.2109375 C25.72025146 19.08024902 25.75690918 19.94956055 25.79467773 20.84521484 C25.87401544 23.0483262 25.87401544 23.0483262 27 25 C24.03 25 21.06 25 18 25 C18.33 24.34 18.66 23.68 19 23 C19.039992 21.00039988 19.04346799 18.99952758 19 17 C18.01 19.31 17.02 21.62 16 24 C14.02 24 12.04 24 10 24 C9.01 21.69 8.02 19.38 7 17 C6.67 19.31 6.34 21.62 6 24 C4.02 24 2.04 24 0 24 C0 16.08 0 8.16 0 0 Z " fill="#060F14" transform="translate(82,317)"/>
<path d="M0 0 C2.31 0 4.62 0 7 0 C7.25523437 0.72574219 7.51046875 1.45148438 7.7734375 2.19921875 C9.06801074 5.1552984 10.60455104 7.30564666 12.625 9.8125 C14.295625 11.8853125 14.295625 11.8853125 16 14 C16 9.38 16 4.76 16 0 C18.31 0 20.62 0 23 0 C23 7.92 23 15.84 23 24 C20.36 24 17.72 24 15 24 C14.90847656 23.43796875 14.81695312 22.8759375 14.72265625 22.296875 C13.81299986 19.40564279 12.3388903 17.60080982 10.4375 15.25 C9.303125 13.8475 8.16875 12.445 7 11 C7 15.29 7 19.58 7 24 C4.36 24 1.72 24 -1 24 C-0.67 23.34 -0.34 22.68 0 22 C0.08426094 20.3325394 0.10725143 18.66174813 0.09765625 16.9921875 C0.09282227 15.51298828 0.09282227 15.51298828 0.08789062 14.00390625 C0.07951172 12.97136719 0.07113281 11.93882812 0.0625 10.875 C0.05573242 9.31458984 0.05573242 9.31458984 0.04882812 7.72265625 C0.03701952 5.14838038 0.02055075 2.57421854 0 0 Z " fill="#000E14" transform="translate(140,318)"/>
<path d="M0 0 C2.58396679 -0.08112454 5.16537568 -0.14054748 7.75 -0.1875 C8.47960937 -0.21263672 9.20921875 -0.23777344 9.9609375 -0.26367188 C13.1847611 -0.30763311 15.58441708 -0.21105862 18.484375 1.26171875 C20.77173159 3.88510453 20.57444022 5.7728642 20.37109375 9.125 C20 11 20 11 18.5625 13 C14.65036006 14.52668876 11.18295601 14.18454218 7 14 C7 17.3 7 20.6 7 24 C5.02 24 3.04 24 1 24 C1.00523682 23.34402832 1.01047363 22.68805664 1.01586914 22.01220703 C1.03661272 19.04981437 1.04965176 16.08743697 1.0625 13.125 C1.07087891 12.09246094 1.07925781 11.05992187 1.08789062 9.99609375 C1.09111328 9.00996094 1.09433594 8.02382813 1.09765625 7.0078125 C1.10289307 6.09660645 1.10812988 5.18540039 1.11352539 4.24658203 C1.14885565 1.96312491 1.14885565 1.96312491 0 0 Z " fill="#00161F" transform="translate(198,318)"/>
<path d="M0 0 C1.98 0 3.96 0 6 0 C8.33994385 6.24776886 10.52476076 12.49861802 12.38671875 18.90625 C12.88736915 20.61547686 13.43678536 22.31035609 14 24 C11.69 24 9.38 24 7 24 C7 22.02 7 20.04 7 18 C3.04 18.495 3.04 18.495 -1 19 C-1 20.65 -1 22.3 -1 24 C-3.64 24 -6.28 24 -9 24 C-6 16 -3 8 0 0 Z " fill="#020F15" transform="translate(121,318)"/>
<path d="M0 0 C2.31 0 4.62 0 7 0 C7.14099121 0.54938232 7.28198242 1.09876465 7.42724609 1.66479492 C8.07307317 4.17325921 8.72398903 6.68037629 9.375 9.1875 C9.59671875 10.05181641 9.8184375 10.91613281 10.046875 11.80664062 C11.13701663 15.99086069 12.24291492 20.03424256 14 24 C11.69 24 9.38 24 7 24 C7 22.35 7 20.7 7 19 C4.36 19 1.72 19 -1 19 C-1 20.65 -1 22.3 -1 24 C-3.31 24 -5.62 24 -8 24 C-5.36 16.08 -2.72 8.16 0 0 Z " fill="#050B0F" transform="translate(287,319)"/>
<path d="M0 0 C4.1863526 0.75354347 5.52694933 2.24276859 8.125 5.5625 C9.4375 8.875 9.4375 8.875 10.125 11.5625 C9.465 11.5625 8.805 11.5625 8.125 11.5625 C8.455 12.8825 8.785 14.2025 9.125 15.5625 C7.46802621 16.25290574 5.7994239 16.9155635 4.125 17.5625 C3.485625 17.830625 2.84625 18.09875 2.1875 18.375 C-1.02152458 18.66672951 -3.14400328 17.11420268 -5.875 15.5625 C-5.875 14.9025 -5.875 14.2425 -5.875 13.5625 C-6.638125 13.459375 -7.40125 13.35625 -8.1875 13.25 C-11.04559424 12.51885961 -12.03242885 11.79298087 -13.875 9.5625 C-12.1734375 9.1603125 -12.1734375 9.1603125 -10.4375 8.75 C-9.261875 8.358125 -8.08625 7.96625 -6.875 7.5625 C-6.545 6.5725 -6.215 5.5825 -5.875 4.5625 C-4.19962215 1.47627764 -3.50580044 0.68591748 0 0 Z " fill="#F9BC49" transform="translate(179.875,319.4375)"/>
<path d="M0 0 C2.64 0 5.28 0 8 0 C10.49210439 2.49210439 10.26015661 4.00360788 10.2734375 7.41015625 C10.26570313 8.09980469 10.25796875 8.78945313 10.25 9.5 C10.25773437 10.18964844 10.26546875 10.87929688 10.2734375 11.58984375 C10.25333293 16.74666707 10.25333293 16.74666707 8 19 C5.36 19 2.72 19 0 19 C0 12.73 0 6.46 0 0 Z " fill="#00A6E6" transform="translate(249,321)"/>
<path d="M0 0 C5.61 0 11.22 0 17 0 C16.67 1.32 16.34 2.64 16 4 C15.67 3.67 15.34 3.34 15 3 C13.15108054 2.76636119 11.29511969 2.58696365 9.4375 2.4375 C8.42558594 2.35371094 7.41367188 2.26992188 6.37109375 2.18359375 C5.19740234 2.09271484 5.19740234 2.09271484 4 2 C4 4.64 4 7.28 4 10 C8.455 9.505 8.455 9.505 13 9 C13 10.65 13 12.3 13 14 C10.03 13.67 7.06 13.34 4 13 C4 15.64 4 18.28 4 21 C7.96 21 11.92 21 16 21 C16 21.66 16 22.32 16 23 C10.39 23 4.78 23 -1 23 C-0.67 15.41 -0.34 7.82 0 0 Z " fill="#000406" transform="translate(223,319)"/>
<path d="M0 0 C3.63 0 7.26 0 11 0 C11 0.33 11 0.66 11 1 C9.02 1 7.04 1 5 1 C5 3.97 5 6.94 5 10 C7.31 10 9.62 10 12 10 C11.67 10.66 11.34 11.32 11 12 C9.02 12 7.04 12 5 12 C5 15.63 5 19.26 5 23 C3.02 23 1.04 23 -1 23 C-0.67 15.41 -0.34 7.82 0 0 Z " fill="#00080C" transform="translate(200,319)"/>
<path d="M0 0 C1.98 0 3.96 0 6 0 C5.99214478 0.98395752 5.99214478 0.98395752 5.98413086 1.98779297 C5.96338728 4.95018563 5.95034824 7.91256303 5.9375 10.875 C5.92912109 11.90753906 5.92074219 12.94007813 5.91210938 14.00390625 C5.90888672 14.99003906 5.90566406 15.97617187 5.90234375 16.9921875 C5.89448853 18.35899658 5.89448853 18.35899658 5.88647461 19.75341797 C5.85114435 22.03687509 5.85114435 22.03687509 7 24 C4.36 24 1.72 24 -1 24 C-0.67 16.08 -0.34 8.16 0 0 Z " fill="#021016" transform="translate(268,319)"/>
<path d="M0 0 C2.31 0 4.62 0 7 0 C6.67 0.66 6.34 1.32 6 2 C8.55509071 5.12288864 11.1034941 6.10080633 15 7 C18.76742779 6.70108766 18.76742779 6.70108766 22 6 C22.66 8.31 23.32 10.62 24 13 C23.01 12.34 22.02 11.68 21 11 C20.2575 11.66 19.515 12.32 18.75 13 C16 15 16 15 12 15 C11.67 14.01 11.34 13.02 11 12 C10.34 12.66 9.68 13.32 9 14 C7.79371992 11.66785852 6.8345262 9.50357861 6 7 C5.01 7 4.02 7 3 7 C3 6.67 3 6.34 3 6 C2.34 5.67 1.68 5.34 1 5 C1 4.01 1 3.02 1 2 C0.67 1.34 0.34 0.68 0 0 Z " fill="#8D9E7F" transform="translate(166,330)"/>
<path d="M0 0 C1 2 1 2 0.44140625 3.9453125 C0.15136719 4.66460937 -0.13867188 5.38390625 -0.4375 6.125 C-0.72496094 6.84945313 -1.01242187 7.57390625 -1.30859375 8.3203125 C-1.53675781 8.87460937 -1.76492188 9.42890625 -2 10 C-0.35 10 1.3 10 3 10 C3.33 8.35 3.66 6.7 4 5 C6.64 5 9.28 5 12 5 C12.33 6.65 12.66 8.3 13 10 C15.31 10 17.62 10 20 10 C20 10.66 20 11.32 20 12 C17.03 12 14.06 12 11 12 C11 10.35 11 8.7 11 7 C9.02 7 7.04 7 5 7 C5 8.65 5 10.3 5 12 C0.71 12 -3.58 12 -8 12 C-8 9.36 -8 6.72 -8 4 C-5.36 2.68 -2.72 1.36 0 0 Z " fill="#65A6DB" transform="translate(282,332)"/>
<path d="M0 0 C4.1863526 0.75354347 5.52694933 2.24276859 8.125 5.5625 C9.4375 8.875 9.4375 8.875 10.125 11.5625 C9.465 11.5625 8.805 11.5625 8.125 11.5625 C8.455 12.8825 8.785 14.2025 9.125 15.5625 C7.46802621 16.25290574 5.7994239 16.9155635 4.125 17.5625 C3.485625 17.830625 2.84625 18.09875 2.1875 18.375 C-1.02152458 18.66672951 -3.14400328 17.11420268 -5.875 15.5625 C-5.875 14.9025 -5.875 14.2425 -5.875 13.5625 C-6.638125 13.459375 -7.40125 13.35625 -8.1875 13.25 C-11.04559424 12.51885961 -12.03242885 11.79298087 -13.875 9.5625 C-12.1734375 9.1603125 -12.1734375 9.1603125 -10.4375 8.75 C-9.261875 8.358125 -8.08625 7.96625 -6.875 7.5625 C-6.545 6.5725 -6.215 5.5825 -5.875 4.5625 C-4.19962215 1.47627764 -3.50580044 0.68591748 0 0 Z M-3.8125 6.1875 C-5.25004343 9.40083238 -4.88873739 11.23164856 -3.875 14.5625 C-1.04782787 16.89546251 -1.04782787 16.89546251 2.1875 16.3125 C5.224459 15.8031756 5.224459 15.8031756 7.125 13.5625 C7.54166667 10.0625 7.54166667 10.0625 7.125 6.5625 C3.30620445 4.0166363 -0.05777421 3.03837515 -3.8125 6.1875 Z " fill="#AA935C" transform="translate(179.875,319.4375)"/>
<path d="M0 0 C0.66 0.33 1.32 0.66 2 1 C1.67 2.98 1.34 4.96 1 7 C0.401875 7.103125 -0.19625 7.20625 -0.8125 7.3125 C-3.33421352 8.10503854 -4.39685699 8.91591409 -6 11 C-6 11.99 -6 12.98 -6 14 C-9.62326739 15.2077558 -10.64146369 14.54311128 -14 13 C-13.01 11.68 -12.02 10.36 -11 9 C-11.33 8.34 -11.66 7.68 -12 7 C-11.34 6.67 -10.68 6.34 -10 6 C-9.67 5.34 -9.34 4.68 -9 4 C-8.01 4.66 -7.02 5.32 -6 6 C-6.66 5.01 -7.32 4.02 -8 3 C-7.34 3 -6.68 3 -6 3 C-5.34 2.34 -4.68 1.68 -4 1 C-3.67 1.66 -3.34 2.32 -3 3 C-2.01 2.01 -1.02 1.02 0 0 Z " fill="#6BA49E" transform="translate(180,314)"/>
<path d="M0 0 C5.625 -0.25 5.625 -0.25 9 2 C8.125 6.875 8.125 6.875 7 8 C4.66702567 8.04092937 2.33294775 8.04241723 0 8 C0 5.36 0 2.72 0 0 Z " fill="#00A6E6" transform="translate(205,321)"/>
<path d="M0 0 C0.33 0 0.66 0 1 0 C1.1875 3.375 1.1875 3.375 1 7 C0.01 7.66 -0.98 8.32 -2 9 C-2 8.34 -2 7.68 -2 7 C-3.32 7.33 -4.64 7.66 -6 8 C-6 6.68 -6 5.36 -6 4 C-6.99 3.67 -7.98 3.34 -9 3 C-9 2.34 -9 1.68 -9 1 C-7.700625 1.020625 -6.40125 1.04125 -5.0625 1.0625 C-3.70834367 1.08399454 -2.35243917 1.07148199 -1 1 C-0.67 0.67 -0.34 0.34 0 0 Z " fill="#F1B345" transform="translate(186,326)"/>
<path d="M0 0 C3.3125 -0.25 3.3125 -0.25 7 0 C9.52322276 2.35500791 10.39958891 4.63769791 11 8 C10.34 8 9.68 8 9 8 C9.33 9.32 9.66 10.64 10 12 C3.60747664 14.6635514 3.60747664 14.6635514 1 15 C-1.25 14.0625 -1.25 14.0625 -3 13 C-2.67 12.34 -2.34 11.68 -2 11 C-1.071875 11.20625 -0.14375 11.4125 0.8125 11.625 C4.15173402 12.36692966 4.15173402 12.36692966 7 10 C7.73606499 6.43230448 7.73606499 6.43230448 8 3 C5.36 2.34 2.72 1.68 0 1 C0 0.67 0 0.34 0 0 Z " fill="#B98C47" transform="translate(179,323)"/>
<path d="M0 0 C5 2 5 2 8 4 C7.34 6.31 6.68 8.62 6 11 C5.34 11 4.68 11 4 11 C2.68 7.37 1.36 3.74 0 0 Z " fill="#65A3D7" transform="translate(90,324)"/>
<path d="M0 0 C0.33 0 0.66 0 1 0 C1.33 1.65 1.66 3.3 2 5 C2.33 5 2.66 5 3 5 C3.08086147 6.79093191 3.13912702 8.58289628 3.1875 10.375 C3.22230469 11.37273437 3.25710938 12.37046875 3.29296875 13.3984375 C3.19628906 14.25695312 3.09960938 15.11546875 3 16 C2.01 16.66 1.02 17.32 0 18 C-0.99 17.67 -1.98 17.34 -3 17 C-2.34 16.34 -1.68 15.68 -1 15 C-0.69400937 12.43083343 -0.48912913 9.95241616 -0.375 7.375 C-0.33632813 6.66859375 -0.29765625 5.9621875 -0.2578125 5.234375 C-0.16352276 3.49001476 -0.08067109 1.74504309 0 0 Z " fill="#01A3E1" transform="translate(264,324)"/>
<path d="M0 0 C3.465 1.485 3.465 1.485 7 3 C6.67 4.32 6.34 5.64 6 7 C4.125 7.625 4.125 7.625 2 8 C0 6 0 6 -0.125 2.875 C-0.08375 1.92625 -0.0425 0.9775 0 0 Z " fill="#65A8DE" transform="translate(107,334)"/>
<path d="M0 0 C0.66 0 1.32 0 2 0 C2.66 2.97 3.32 5.94 4 9 C2.02 9 0.04 9 -2 9 C-1.34 6.03 -0.68 3.06 0 0 Z " fill="#008EC3" transform="translate(123,325)"/>
<path d="M0 0 C0.66 0.33 1.32 0.66 2 1 C1.67 2.98 1.34 4.96 1 7 C-0.65 7.33 -2.3 7.66 -4 8 C-4 7.34 -4 6.68 -4 6 C-5.32 5.34 -6.64 4.68 -8 4 C-6.68 3.01 -5.36 2.02 -4 1 C-3.67 1.66 -3.34 2.32 -3 3 C-2.01 2.01 -1.02 1.02 0 0 Z " fill="#58A4AB" transform="translate(180,314)"/>
<path d="M0 0 C2.33944736 0.28730055 4.6739143 0.61936779 7 1 C6.67 2.98 6.34 4.96 6 7 C4.68 7 3.36 7 2 7 C1.67 6.01 1.34 5.02 1 4 C0.34 4.66 -0.32 5.32 -1 6 C-1.042721 4.33388095 -1.04063832 2.66617115 -1 1 C-0.67 0.67 -0.34 0.34 0 0 Z " fill="#60A4A9" transform="translate(176,338)"/>
<path d="M0 0 C0.33 1.98 0.66 3.96 1 6 C0.01 5.34 -0.98 4.68 -2 4 C-3.32 4.99 -4.64 5.98 -6 7 C-6 5.35 -6 3.7 -6 2 C-6.66 2 -7.32 2 -8 2 C-8 1.34 -8 0.68 -8 0 C-4.71023192 -1.09658936 -3.28696233 -0.79953138 0 0 Z " fill="#829F88" transform="translate(189,337)"/>
<path d="M0 0 C0.66 0 1.32 0 2 0 C2.66 2.97 3.32 5.94 4 9 C2.02 9 0.04 9 -2 9 C-1.34 6.03 -0.68 3.06 0 0 Z " fill="#5894C3" transform="translate(289,326)"/>
<path d="M0 0 C2.15377564 2.62198774 3.40072174 4.64404172 4 8 C3.34 8 2.68 8 2 8 C2 8.66 2 9.32 2 10 C-0.97 10 -3.94 10 -7 10 C-6.67 9.34 -6.34 8.68 -6 8 C-3.03 8.495 -3.03 8.495 0 9 C0 6.03 0 3.06 0 0 Z " fill="#5488B4" transform="translate(88,332)"/>
<path d="M0 0 C0.66 0.33 1.32 0.66 2 1 C2.3721042 2.32303717 2.70630173 3.65737935 3 5 C3.33 5.33 3.66 5.66 4 6 C4.66 5.34 5.32 4.68 6 4 C6 5.98 6 7.96 6 10 C4.68 9.67 3.36 9.34 2 9 C2 8.34 2 7.68 2 7 C1.34 7 0.68 7 0 7 C0 6.34 0 5.68 0 5 C-0.66 4.67 -1.32 4.34 -2 4 C-1.34 2.68 -0.68 1.36 0 0 Z " fill="#27A8D5" transform="translate(172,336)"/>
<path d="M0 0 C2.64 0 5.28 0 8 0 C8.33 1.65 8.66 3.3 9 5 C11.31 5 13.62 5 16 5 C16 5.66 16 6.32 16 7 C13.03 7 10.06 7 7 7 C6.67 5.35 6.34 3.7 6 2 C3.03 1.505 3.03 1.505 0 1 C0 0.67 0 0.34 0 0 Z " fill="#5387B2" transform="translate(286,337)"/>
<path d="M0 0 C0.33 0.66 0.66 1.32 1 2 C0.01 2 -0.98 2 -2 2 C-1.34 2.33 -0.68 2.66 0 3 C0 3.66 0 4.32 0 5 C-0.66 5 -1.32 5 -2 5 C-2.33 5.66 -2.66 6.32 -3 7 C-4.32 5.02 -5.64 3.04 -7 1 C-4.53721199 -0.231394 -2.7204945 -0.07159196 0 0 Z " fill="#5FA2A7" transform="translate(194,334)"/>
<path d="M0 0 C2.31 0 4.62 0 7 0 C6.67 0.66 6.34 1.32 6 2 C6.66 2.33 7.32 2.66 8 3 C8 3.66 8 4.32 8 5 C5.69 5.33 3.38 5.66 1 6 C1 5.01 1 4.02 1 3 C0.67 2.01 0.34 1.02 0 0 Z " fill="#5AA3A9" transform="translate(166,330)"/>
<path d="M0 0 C2.8125 -0.1875 2.8125 -0.1875 6 0 C6.99 0.99 7.98 1.98 9 3 C5.37 3.66 1.74 4.32 -2 5 C-1.34 3.35 -0.68 1.7 0 0 Z " fill="#9C9366" transform="translate(177,320)"/>
<path d="M0 0 C1.98 0 3.96 0 6 0 C6 0.66 6 1.32 6 2 C5.34 2 4.68 2 4 2 C4 3.32 4 4.64 4 6 C3.34 6 2.68 6 2 6 C2 4.68 2 3.36 2 2 C1.34 2 0.68 2 0 2 C0 1.34 0 0.68 0 0 Z " fill="#D49333" transform="translate(178,328)"/>
<path d="M0 0 C2.9719385 1.12451727 5.33440687 2.22293791 8 4 C7.67 4.99 7.34 5.98 7 7 C6.67 6.34 6.34 5.68 6 5 C5.175 4.690625 4.35 4.38125 3.5 4.0625 C2.675 3.711875 1.85 3.36125 1 3 C0.67 2.01 0.34 1.02 0 0 Z " fill="#69ADE4" transform="translate(90,324)"/>
</svg>
